<svg width="402" height="360" viewBox="0 0 402 360" fill="none" xmlns="http://www.w3.org/2000/svg">
<rect x="0.5" y="0.5" width="400.333" height="359" rx="23.5" fill="#F4F4F4"/>
<rect x="0.5" y="0.5" width="400.333" height="359" rx="23.5" stroke="#7C4DFF" stroke-dasharray="10 10"/>
<path d="M157.961 285.699C156.72 288.771 153.215 290.269 150.209 288.876C126.788 278.023 107.437 259.875 95.1088 237.075C81.8272 212.511 77.5281 184.085 82.952 156.692C88.3759 129.299 103.183 104.656 124.823 87.0067C146.463 69.3576 173.581 59.808 201.504 60.0029C229.428 60.1979 256.41 70.1252 277.801 88.0747C299.193 106.024 313.654 130.872 318.695 158.338C323.736 185.803 319.04 214.167 305.417 238.543C292.772 261.169 273.17 279.044 249.6 289.57C246.574 290.921 243.09 289.374 241.892 286.285C240.694 283.195 242.235 279.735 245.253 278.367C266.223 268.863 283.659 252.877 294.942 232.689C307.203 210.751 311.429 185.223 306.892 160.504C302.356 135.785 289.34 113.422 270.088 97.2672C250.835 81.1126 226.552 72.1781 201.421 72.0026C176.289 71.8272 151.883 80.4218 132.407 96.306C112.932 112.19 99.605 134.369 94.7235 159.023C89.842 183.676 93.7112 209.26 105.665 231.367C116.664 251.711 133.876 267.939 154.711 277.735C157.71 279.145 159.203 282.627 157.961 285.699Z" fill="#E9E9E9"/>
<path d="M200.667 66C200.667 62.6863 203.355 59.9843 206.665 60.1499C232.516 61.4431 257.319 71.0686 277.317 87.6705C298.857 105.553 313.467 130.403 318.618 157.921C323.769 185.439 319.137 213.891 305.523 238.354C292.884 261.065 273.242 279.01 249.609 289.566C246.583 290.917 243.099 289.371 241.901 286.281C240.702 283.192 242.244 279.731 245.262 278.363C266.288 268.831 283.76 252.783 295.037 232.518C307.29 210.502 311.459 184.895 306.823 160.129C302.187 135.363 289.038 112.997 269.652 96.9034C251.808 82.0901 229.714 73.4481 206.664 72.1666C203.356 71.9826 200.667 69.3137 200.667 66Z" fill="#7C4DFF"/>
<path d="M287.628 106.286C290.156 104.143 293.955 104.447 295.969 107.079C306.347 120.642 313.725 136.285 317.583 152.97C321.891 171.607 321.682 191.003 316.973 209.542C312.264 228.081 303.192 245.226 290.512 259.548C279.16 272.369 265.211 282.595 249.617 289.562C246.592 290.914 243.108 289.367 241.909 286.278C240.711 283.189 242.251 279.728 245.269 278.36C259.083 272.096 271.443 262.982 281.527 251.593C292.939 238.704 301.105 223.273 305.343 206.588C309.581 189.903 309.769 172.446 305.891 155.673C302.465 140.852 295.951 126.945 286.802 114.848C284.803 112.205 285.1 108.429 287.628 106.286Z" fill="#FF961F"/>
<g clip-path="url(#clip0_5605_48752)">
<line x1="151.1" y1="88.75" x2="158.6" y2="101.74" stroke="#0E0E0E"/>
<line x1="210.036" y1="76.0436" x2="209.165" y2="86.0055" stroke="#0E0E0E"/>
<line x1="220.896" y1="78.0868" x2="219.159" y2="87.9349" stroke="#0E0E0E"/>
<line x1="229.738" y1="80.1294" x2="227.15" y2="89.7887" stroke="#0E0E0E"/>
<line x1="238.557" y1="83.171" x2="235.136" y2="92.5679" stroke="#0E0E0E"/>
<line x1="246.346" y1="86.2113" x2="242.12" y2="95.2744" stroke="#0E0E0E"/>
<line x1="158.12" y1="85.7887" x2="162.346" y2="94.8518" stroke="#0E0E0E"/>
<line x1="165.136" y1="82.829" x2="168.557" y2="92.2259" stroke="#0E0E0E"/>
<line x1="173.15" y1="79.8706" x2="175.738" y2="89.5298" stroke="#0E0E0E"/>
<line x1="182.159" y1="77.9132" x2="183.896" y2="87.7613" stroke="#0E0E0E"/>
<line x1="190.597" y1="75.9564" x2="191.469" y2="85.9184" stroke="#0E0E0E"/>
<line x1="201.167" y1="75" x2="201.167" y2="85" stroke="#0E0E0E"/>
<line x1="117.953" y1="118.59" x2="126.145" y2="124.326" stroke="#0E0E0E"/>
<line x1="123.988" y1="111.617" x2="131.648" y2="118.045" stroke="#0E0E0E"/>
<line x1="129.02" y1="104.646" x2="136.091" y2="111.718" stroke="#0E0E0E"/>
<line x1="136.05" y1="98.6786" x2="142.478" y2="106.339" stroke="#0E0E0E"/>
<line x1="143.076" y1="93.7132" x2="148.812" y2="101.905" stroke="#0E0E0E"/>
<line x1="97.7102" y1="169.502" x2="107.672" y2="170.373" stroke="#0E0E0E"/>
<line x1="98.7535" y1="159.508" x2="108.602" y2="161.244" stroke="#0E0E0E"/>
<line x1="100.796" y1="151.517" x2="110.455" y2="154.105" stroke="#0E0E0E"/>
<line x1="103.838" y1="142.53" x2="113.235" y2="145.95" stroke="#0E0E0E"/>
<line x1="107.878" y1="133.547" x2="116.941" y2="137.773" stroke="#0E0E0E"/>
<line x1="112.917" y1="125.567" x2="121.577" y2="130.567" stroke="#0E0E0E"/>
<line x1="293.941" y1="134.453" x2="284.878" y2="138.679" stroke="#0E0E0E"/>
<line x1="297.235" y1="143.47" x2="287.838" y2="146.89" stroke="#0E0E0E"/>
<line x1="300.455" y1="152.483" x2="290.796" y2="155.071" stroke="#0E0E0E"/>
<line x1="302.602" y1="160.492" x2="292.754" y2="162.229" stroke="#0E0E0E"/>
<line x1="303.672" y1="170.498" x2="293.71" y2="171.37" stroke="#0E0E0E"/>
<line x1="259.812" y1="95.2868" x2="254.076" y2="103.478" stroke="#0E0E0E"/>
<line x1="266.478" y1="100.321" x2="260.05" y2="107.982" stroke="#0E0E0E"/>
<line x1="273.091" y1="106.354" x2="266.02" y2="113.425" stroke="#0E0E0E"/>
<line x1="279.648" y1="112.383" x2="271.988" y2="118.811" stroke="#0E0E0E"/>
<line x1="284.145" y1="119.41" x2="275.953" y2="125.145" stroke="#0E0E0E"/>
<line x1="289.577" y1="126.433" x2="280.917" y2="131.433" stroke="#0E0E0E"/>
<line x1="253.6" y1="89.25" x2="246.1" y2="102.24" stroke="#0E0E0E"/>
<line x1="97.6666" y1="179.443" x2="112.667" y2="179.443" stroke="#0E0E0E"/>
<line x1="288.667" y1="179.443" x2="303.667" y2="179.443" stroke="#0E0E0E"/>
</g>
<path d="M151.398 116V115.148H153.39V108.392H153.918L151.59 109.844V108.848L153.666 107.54H154.386V115.148H156.258V116H151.398ZM158.101 116V115.256L161.101 112.124C161.493 111.716 161.785 111.328 161.977 110.96C162.177 110.584 162.277 110.196 162.277 109.796C162.277 109.308 162.125 108.94 161.821 108.692C161.517 108.436 161.077 108.308 160.501 108.308C160.053 108.308 159.637 108.388 159.253 108.548C158.877 108.7 158.513 108.944 158.161 109.28L157.801 108.5C158.121 108.18 158.529 107.924 159.025 107.732C159.521 107.532 160.045 107.432 160.597 107.432C161.453 107.432 162.113 107.632 162.577 108.032C163.041 108.424 163.273 108.984 163.273 109.712C163.273 110.248 163.141 110.76 162.877 111.248C162.621 111.728 162.245 112.224 161.749 112.736L159.097 115.424V115.148H163.633V116H158.101ZM167.864 116.108C166.904 116.108 166.168 115.736 165.656 114.992C165.144 114.248 164.888 113.172 164.888 111.764C164.888 110.348 165.144 109.272 165.656 108.536C166.168 107.8 166.904 107.432 167.864 107.432C168.832 107.432 169.568 107.8 170.072 108.536C170.584 109.272 170.84 110.344 170.84 111.752C170.84 113.168 170.584 114.248 170.072 114.992C169.56 115.736 168.824 116.108 167.864 116.108ZM167.864 115.244C168.536 115.244 169.036 114.96 169.364 114.392C169.692 113.824 169.856 112.944 169.856 111.752C169.856 110.552 169.692 109.676 169.364 109.124C169.036 108.564 168.536 108.284 167.864 108.284C167.2 108.284 166.7 108.564 166.364 109.124C166.036 109.684 165.872 110.56 165.872 111.752C165.872 112.944 166.036 113.824 166.364 114.392C166.7 114.96 167.2 115.244 167.864 115.244Z" fill="#0E0E0E"/>
<path d="M237.503 116V115.256L240.503 112.124C240.895 111.716 241.187 111.328 241.379 110.96C241.579 110.584 241.679 110.196 241.679 109.796C241.679 109.308 241.527 108.94 241.223 108.692C240.919 108.436 240.479 108.308 239.903 108.308C239.455 108.308 239.039 108.388 238.655 108.548C238.279 108.7 237.915 108.944 237.563 109.28L237.203 108.5C237.523 108.18 237.931 107.924 238.427 107.732C238.923 107.532 239.447 107.432 239.999 107.432C240.855 107.432 241.515 107.632 241.979 108.032C242.443 108.424 242.675 108.984 242.675 109.712C242.675 110.248 242.543 110.76 242.279 111.248C242.023 111.728 241.647 112.224 241.151 112.736L238.499 115.424V115.148H243.035V116H237.503ZM247.267 116.108C246.307 116.108 245.571 115.736 245.059 114.992C244.547 114.248 244.291 113.172 244.291 111.764C244.291 110.348 244.547 109.272 245.059 108.536C245.571 107.8 246.307 107.432 247.267 107.432C248.235 107.432 248.971 107.8 249.475 108.536C249.987 109.272 250.243 110.344 250.243 111.752C250.243 113.168 249.987 114.248 249.475 114.992C248.963 115.736 248.227 116.108 247.267 116.108ZM247.267 115.244C247.939 115.244 248.439 114.96 248.767 114.392C249.095 113.824 249.259 112.944 249.259 111.752C249.259 110.552 249.095 109.676 248.767 109.124C248.439 108.564 247.939 108.284 247.267 108.284C246.603 108.284 246.103 108.564 245.767 109.124C245.439 109.684 245.275 110.56 245.275 111.752C245.275 112.944 245.439 113.824 245.767 114.392C246.103 114.96 246.603 115.244 247.267 115.244Z" fill="#0E0E0E"/>
<path d="M273.103 181V179.164H269.071V178.444L273.259 172.54H274.075V178.36H275.371V179.164H274.075V181H273.103ZM273.103 178.36V173.716H273.367L269.887 178.612V178.36H273.103ZM279.267 181.108C278.307 181.108 277.571 180.736 277.059 179.992C276.547 179.248 276.291 178.172 276.291 176.764C276.291 175.348 276.547 174.272 277.059 173.536C277.571 172.8 278.307 172.432 279.267 172.432C280.235 172.432 280.971 172.8 281.475 173.536C281.987 174.272 282.243 175.344 282.243 176.752C282.243 178.168 281.987 179.248 281.475 179.992C280.963 180.736 280.227 181.108 279.267 181.108ZM279.267 180.244C279.939 180.244 280.439 179.96 280.767 179.392C281.095 178.824 281.259 177.944 281.259 176.752C281.259 175.552 281.095 174.676 280.767 174.124C280.439 173.564 279.939 173.284 279.267 173.284C278.603 173.284 278.103 173.564 277.767 174.124C277.439 174.684 277.275 175.56 277.275 176.752C277.275 177.944 277.439 178.824 277.767 179.392C278.103 179.96 278.603 180.244 279.267 180.244Z" fill="#0E0E0E"/>
<path d="M118.398 181V180.148H120.39V173.392H120.918L118.59 174.844V173.848L120.666 172.54H121.386V180.148H123.258V181H118.398ZM127.669 181.108C126.709 181.108 125.973 180.736 125.461 179.992C124.949 179.248 124.693 178.172 124.693 176.764C124.693 175.348 124.949 174.272 125.461 173.536C125.973 172.8 126.709 172.432 127.669 172.432C128.637 172.432 129.373 172.8 129.877 173.536C130.389 174.272 130.645 175.344 130.645 176.752C130.645 178.168 130.389 179.248 129.877 179.992C129.365 180.736 128.629 181.108 127.669 181.108ZM127.669 180.244C128.341 180.244 128.841 179.96 129.169 179.392C129.497 178.824 129.661 177.944 129.661 176.752C129.661 175.552 129.497 174.676 129.169 174.124C128.841 173.564 128.341 173.284 127.669 173.284C127.005 173.284 126.505 173.564 126.169 174.124C125.841 174.684 125.677 175.56 125.677 176.752C125.677 177.944 125.841 178.824 126.169 179.392C126.505 179.96 127.005 180.244 127.669 180.244ZM134.864 181.108C133.904 181.108 133.168 180.736 132.656 179.992C132.144 179.248 131.888 178.172 131.888 176.764C131.888 175.348 132.144 174.272 132.656 173.536C133.168 172.8 133.904 172.432 134.864 172.432C135.832 172.432 136.568 172.8 137.072 173.536C137.584 174.272 137.84 175.344 137.84 176.752C137.84 178.168 137.584 179.248 137.072 179.992C136.56 180.736 135.824 181.108 134.864 181.108ZM134.864 180.244C135.536 180.244 136.036 179.96 136.364 179.392C136.692 178.824 136.856 177.944 136.856 176.752C136.856 175.552 136.692 174.676 136.364 174.124C136.036 173.564 135.536 173.284 134.864 173.284C134.2 173.284 133.7 173.564 133.364 174.124C133.036 174.684 132.872 175.56 132.872 176.752C132.872 177.944 133.036 178.824 133.364 179.392C133.7 179.96 134.2 180.244 134.864 180.244Z" fill="#0E0E0E"/>
<circle cx="201.615" cy="180.949" r="7" transform="rotate(19.6844 201.615 180.949)" fill="#7C4DFF"/>
<g clip-path="url(#clip1_5605_48752)">
<line x1="250.234" y1="271.25" x2="242.734" y2="258.26" stroke="#0E0E0E"/>
<line x1="283.38" y1="241.41" x2="275.188" y2="235.674" stroke="#0E0E0E"/>
<line x1="277.345" y1="248.383" x2="269.685" y2="241.955" stroke="#0E0E0E"/>
<line x1="272.313" y1="255.354" x2="265.242" y2="248.282" stroke="#0E0E0E"/>
<line x1="265.284" y1="261.321" x2="258.856" y2="253.661" stroke="#0E0E0E"/>
<line x1="258.257" y1="266.287" x2="252.521" y2="258.095" stroke="#0E0E0E"/>
<line x1="303.623" y1="190.498" x2="293.661" y2="189.627" stroke="#0E0E0E"/>
<line x1="302.58" y1="200.492" x2="292.732" y2="198.756" stroke="#0E0E0E"/>
<line x1="300.537" y1="208.483" x2="290.878" y2="205.895" stroke="#0E0E0E"/>
<line x1="297.496" y1="217.47" x2="288.099" y2="214.05" stroke="#0E0E0E"/>
<line x1="293.455" y1="226.453" x2="284.392" y2="222.227" stroke="#0E0E0E"/>
<line x1="288.417" y1="234.433" x2="279.756" y2="229.433" stroke="#0E0E0E"/>
<line x1="107.392" y1="225.547" x2="116.455" y2="221.321" stroke="#0E0E0E"/>
<line x1="104.099" y1="216.53" x2="113.496" y2="213.11" stroke="#0E0E0E"/>
<line x1="100.878" y1="207.517" x2="110.537" y2="204.929" stroke="#0E0E0E"/>
<line x1="98.7317" y1="199.508" x2="108.58" y2="197.771" stroke="#0E0E0E"/>
<line x1="97.6611" y1="189.502" x2="107.623" y2="188.63" stroke="#0E0E0E"/>
<line x1="141.521" y1="264.713" x2="147.257" y2="256.522" stroke="#0E0E0E"/>
<line x1="134.856" y1="259.679" x2="141.284" y2="252.018" stroke="#0E0E0E"/>
<line x1="128.242" y1="253.646" x2="135.313" y2="246.575" stroke="#0E0E0E"/>
<line x1="121.685" y1="247.617" x2="129.345" y2="241.189" stroke="#0E0E0E"/>
<line x1="117.188" y1="240.59" x2="125.38" y2="234.855" stroke="#0E0E0E"/>
<line x1="111.756" y1="233.567" x2="120.417" y2="228.567" stroke="#0E0E0E"/>
<line x1="147.734" y1="270.75" x2="155.234" y2="257.76" stroke="#0E0E0E"/>
</g>
<path d="M240.347 254.108C239.323 254.108 238.531 253.748 237.971 253.028C237.419 252.3 237.143 251.284 237.143 249.98C237.143 249.004 237.283 248.18 237.563 247.508C237.843 246.828 238.243 246.312 238.763 245.96C239.283 245.608 239.911 245.432 240.647 245.432C241.087 245.432 241.531 245.524 241.979 245.708C242.427 245.884 242.795 246.132 243.083 246.452L242.723 247.22C242.419 246.908 242.087 246.68 241.727 246.536C241.367 246.384 241.003 246.308 240.635 246.308C239.819 246.308 239.191 246.6 238.751 247.184C238.319 247.76 238.103 248.628 238.103 249.788V250.904H237.995C238.051 250.448 238.187 250.056 238.403 249.728C238.627 249.392 238.919 249.136 239.279 248.96C239.639 248.784 240.039 248.696 240.479 248.696C240.991 248.696 241.443 248.808 241.835 249.032C242.227 249.256 242.535 249.572 242.759 249.98C242.983 250.38 243.095 250.84 243.095 251.36C243.095 251.888 242.979 252.36 242.747 252.776C242.515 253.192 242.191 253.52 241.775 253.76C241.359 253.992 240.883 254.108 240.347 254.108ZM240.275 253.268C240.643 253.268 240.967 253.192 241.247 253.04C241.535 252.88 241.755 252.66 241.907 252.38C242.067 252.092 242.147 251.764 242.147 251.396C242.147 251.028 242.067 250.704 241.907 250.424C241.755 250.144 241.535 249.924 241.247 249.764C240.967 249.604 240.643 249.524 240.275 249.524C239.907 249.524 239.583 249.604 239.303 249.764C239.023 249.924 238.803 250.144 238.643 250.424C238.491 250.704 238.415 251.028 238.415 251.396C238.415 251.764 238.491 252.092 238.643 252.38C238.803 252.66 239.023 252.88 239.303 253.04C239.583 253.192 239.907 253.268 240.275 253.268ZM247.267 254.108C246.307 254.108 245.571 253.736 245.059 252.992C244.547 252.248 244.291 251.172 244.291 249.764C244.291 248.348 244.547 247.272 245.059 246.536C245.571 245.8 246.307 245.432 247.267 245.432C248.235 245.432 248.971 245.8 249.475 246.536C249.987 247.272 250.243 248.344 250.243 249.752C250.243 251.168 249.987 252.248 249.475 252.992C248.963 253.736 248.227 254.108 247.267 254.108ZM247.267 253.244C247.939 253.244 248.439 252.96 248.767 252.392C249.095 251.824 249.259 250.944 249.259 249.752C249.259 248.552 249.095 247.676 248.767 247.124C248.439 246.564 247.939 246.284 247.267 246.284C246.603 246.284 246.103 246.564 245.767 247.124C245.439 247.684 245.275 248.56 245.275 249.752C245.275 250.944 245.439 251.824 245.767 252.392C246.103 252.96 246.603 253.244 247.267 253.244Z" fill="#0E0E0E"/>
<path d="M154.071 254.108C153.103 254.108 152.355 253.904 151.827 253.496C151.299 253.08 151.035 252.5 151.035 251.756C151.035 251.172 151.215 250.688 151.575 250.304C151.935 249.912 152.411 249.676 153.003 249.596V249.776C152.467 249.664 152.039 249.42 151.719 249.044C151.399 248.66 151.239 248.208 151.239 247.688C151.239 246.976 151.491 246.424 151.995 246.032C152.499 245.632 153.191 245.432 154.071 245.432C154.959 245.432 155.655 245.632 156.159 246.032C156.663 246.424 156.915 246.976 156.915 247.688C156.915 248.208 156.763 248.66 156.459 249.044C156.163 249.428 155.747 249.668 155.211 249.764V249.596C155.795 249.676 156.259 249.912 156.603 250.304C156.947 250.688 157.119 251.172 157.119 251.756C157.119 252.5 156.855 253.08 156.327 253.496C155.799 253.904 155.047 254.108 154.071 254.108ZM154.071 253.292C154.775 253.292 155.299 253.16 155.643 252.896C155.995 252.632 156.171 252.232 156.171 251.696C156.171 251.168 155.995 250.776 155.643 250.52C155.299 250.256 154.775 250.124 154.071 250.124C153.367 250.124 152.839 250.256 152.487 250.52C152.143 250.776 151.971 251.168 151.971 251.696C151.971 252.232 152.147 252.632 152.499 252.896C152.851 253.16 153.375 253.292 154.071 253.292ZM154.071 249.308C154.679 249.308 155.143 249.172 155.463 248.9C155.791 248.628 155.955 248.252 155.955 247.772C155.955 247.292 155.791 246.92 155.463 246.656C155.143 246.384 154.679 246.248 154.071 246.248C153.463 246.248 152.995 246.384 152.667 246.656C152.347 246.92 152.187 247.292 152.187 247.772C152.187 248.252 152.347 248.628 152.667 248.9C152.995 249.172 153.463 249.308 154.071 249.308ZM161.267 254.108C160.307 254.108 159.571 253.736 159.059 252.992C158.547 252.248 158.291 251.172 158.291 249.764C158.291 248.348 158.547 247.272 159.059 246.536C159.571 245.8 160.307 245.432 161.267 245.432C162.235 245.432 162.971 245.8 163.475 246.536C163.987 247.272 164.243 248.344 164.243 249.752C164.243 251.168 163.987 252.248 163.475 252.992C162.963 253.736 162.227 254.108 161.267 254.108ZM161.267 253.244C161.939 253.244 162.439 252.96 162.767 252.392C163.095 251.824 163.259 250.944 163.259 249.752C163.259 248.552 163.095 247.676 162.767 247.124C162.439 246.564 161.939 246.284 161.267 246.284C160.603 246.284 160.103 246.564 159.767 247.124C159.439 247.684 159.275 248.56 159.275 249.752C159.275 250.944 159.439 251.824 159.767 252.392C160.103 252.96 160.603 253.244 161.267 253.244Z" fill="#0E0E0E"/>
<path d="M184.03 267.619C183.976 267.709 183.916 267.778 183.85 267.826C183.79 267.868 183.715 267.889 183.625 267.889C183.523 267.889 183.403 267.838 183.265 267.736C183.127 267.634 182.953 267.523 182.743 267.403C182.539 267.277 182.29 267.163 181.996 267.061C181.708 266.959 181.357 266.908 180.943 266.908C180.553 266.908 180.208 266.962 179.908 267.07C179.614 267.172 179.365 267.313 179.161 267.493C178.963 267.673 178.813 267.886 178.711 268.132C178.609 268.372 178.558 268.633 178.558 268.915C178.558 269.275 178.645 269.575 178.819 269.815C178.999 270.049 179.233 270.25 179.521 270.418C179.815 270.586 180.145 270.733 180.511 270.859C180.883 270.979 181.261 271.105 181.645 271.237C182.035 271.369 182.413 271.519 182.779 271.687C183.151 271.849 183.481 272.056 183.769 272.308C184.063 272.56 184.297 272.869 184.471 273.235C184.651 273.601 184.741 274.051 184.741 274.585C184.741 275.149 184.645 275.68 184.453 276.178C184.261 276.67 183.979 277.099 183.607 277.465C183.241 277.831 182.788 278.119 182.248 278.329C181.714 278.539 181.105 278.644 180.421 278.644C179.581 278.644 178.819 278.494 178.135 278.194C177.451 277.888 176.866 277.477 176.38 276.961L176.884 276.133C176.932 276.067 176.989 276.013 177.055 275.971C177.127 275.923 177.205 275.899 177.289 275.899C177.367 275.899 177.454 275.932 177.55 275.998C177.652 276.058 177.766 276.136 177.892 276.232C178.018 276.328 178.162 276.433 178.324 276.547C178.486 276.661 178.669 276.766 178.873 276.862C179.083 276.958 179.32 277.039 179.584 277.105C179.848 277.165 180.145 277.195 180.475 277.195C180.889 277.195 181.258 277.138 181.582 277.024C181.906 276.91 182.179 276.751 182.401 276.547C182.629 276.337 182.803 276.088 182.923 275.8C183.043 275.512 183.103 275.191 183.103 274.837C183.103 274.447 183.013 274.129 182.833 273.883C182.659 273.631 182.428 273.421 182.14 273.253C181.852 273.085 181.522 272.944 181.15 272.83C180.778 272.71 180.4 272.59 180.016 272.47C179.632 272.344 179.254 272.2 178.882 272.038C178.51 271.876 178.18 271.666 177.892 271.408C177.604 271.15 177.37 270.829 177.19 270.445C177.016 270.055 176.929 269.575 176.929 269.005C176.929 268.549 177.016 268.108 177.19 267.682C177.37 267.256 177.628 266.878 177.964 266.548C178.306 266.218 178.723 265.954 179.215 265.756C179.713 265.558 180.283 265.459 180.925 265.459C181.645 265.459 182.299 265.573 182.887 265.801C183.481 266.029 184.003 266.359 184.453 266.791L184.03 267.619ZM188.246 276.304C188.54 276.7 188.861 276.979 189.209 277.141C189.557 277.303 189.947 277.384 190.379 277.384C191.231 277.384 191.885 277.081 192.341 276.475C192.797 275.869 193.025 275.005 193.025 273.883C193.025 273.289 192.971 272.779 192.863 272.353C192.761 271.927 192.611 271.579 192.413 271.309C192.215 271.033 191.972 270.832 191.684 270.706C191.396 270.58 191.069 270.517 190.703 270.517C190.181 270.517 189.722 270.637 189.326 270.877C188.936 271.117 188.576 271.456 188.246 271.894V276.304ZM188.165 270.796C188.549 270.322 188.993 269.941 189.497 269.653C190.001 269.365 190.577 269.221 191.225 269.221C191.753 269.221 192.23 269.323 192.656 269.527C193.082 269.725 193.445 270.022 193.745 270.418C194.045 270.808 194.276 271.294 194.438 271.876C194.6 272.458 194.681 273.127 194.681 273.883C194.681 274.555 194.591 275.182 194.411 275.764C194.231 276.34 193.97 276.841 193.628 277.267C193.292 277.687 192.878 278.02 192.386 278.266C191.9 278.506 191.351 278.626 190.739 278.626C190.181 278.626 189.701 278.533 189.299 278.347C188.903 278.155 188.552 277.891 188.246 277.555V281.587H186.635V269.383H187.598C187.826 269.383 187.967 269.494 188.021 269.716L188.165 270.796ZM202.827 272.947C202.827 272.575 202.773 272.236 202.665 271.93C202.563 271.618 202.41 271.351 202.206 271.129C202.008 270.901 201.765 270.727 201.477 270.607C201.189 270.481 200.862 270.418 200.496 270.418C199.728 270.418 199.119 270.643 198.669 271.093C198.225 271.537 197.949 272.155 197.841 272.947H202.827ZM204.123 277.222C203.925 277.462 203.688 277.672 203.412 277.852C203.136 278.026 202.839 278.17 202.521 278.284C202.209 278.398 201.885 278.482 201.549 278.536C201.213 278.596 200.88 278.626 200.55 278.626C199.92 278.626 199.338 278.521 198.804 278.311C198.276 278.095 197.817 277.783 197.427 277.375C197.043 276.961 196.743 276.451 196.527 275.845C196.311 275.239 196.203 274.543 196.203 273.757C196.203 273.121 196.299 272.527 196.491 271.975C196.689 271.423 196.971 270.946 197.337 270.544C197.703 270.136 198.15 269.818 198.678 269.59C199.206 269.356 199.8 269.239 200.46 269.239C201.006 269.239 201.51 269.332 201.972 269.518C202.44 269.698 202.842 269.962 203.178 270.31C203.52 270.652 203.787 271.078 203.979 271.588C204.171 272.092 204.267 272.668 204.267 273.316C204.267 273.568 204.24 273.736 204.186 273.82C204.132 273.904 204.03 273.946 203.88 273.946H197.787C197.805 274.522 197.883 275.023 198.021 275.449C198.165 275.875 198.363 276.232 198.615 276.52C198.867 276.802 199.167 277.015 199.515 277.159C199.863 277.297 200.253 277.366 200.685 277.366C201.087 277.366 201.432 277.321 201.72 277.231C202.014 277.135 202.266 277.033 202.476 276.925C202.686 276.817 202.86 276.718 202.998 276.628C203.142 276.532 203.265 276.484 203.367 276.484C203.499 276.484 203.601 276.535 203.673 276.637L204.123 277.222ZM212.336 272.947C212.336 272.575 212.282 272.236 212.174 271.93C212.072 271.618 211.919 271.351 211.715 271.129C211.517 270.901 211.274 270.727 210.986 270.607C210.698 270.481 210.371 270.418 210.005 270.418C209.237 270.418 208.628 270.643 208.178 271.093C207.734 271.537 207.458 272.155 207.35 272.947H212.336ZM213.632 277.222C213.434 277.462 213.197 277.672 212.921 277.852C212.645 278.026 212.348 278.17 212.03 278.284C211.718 278.398 211.394 278.482 211.058 278.536C210.722 278.596 210.389 278.626 210.059 278.626C209.429 278.626 208.847 278.521 208.313 278.311C207.785 278.095 207.326 277.783 206.936 277.375C206.552 276.961 206.252 276.451 206.036 275.845C205.82 275.239 205.712 274.543 205.712 273.757C205.712 273.121 205.808 272.527 206 271.975C206.198 271.423 206.48 270.946 206.846 270.544C207.212 270.136 207.659 269.818 208.187 269.59C208.715 269.356 209.309 269.239 209.969 269.239C210.515 269.239 211.019 269.332 211.481 269.518C211.949 269.698 212.351 269.962 212.687 270.31C213.029 270.652 213.296 271.078 213.488 271.588C213.68 272.092 213.776 272.668 213.776 273.316C213.776 273.568 213.749 273.736 213.695 273.82C213.641 273.904 213.539 273.946 213.389 273.946H207.296C207.314 274.522 207.392 275.023 207.53 275.449C207.674 275.875 207.872 276.232 208.124 276.52C208.376 276.802 208.676 277.015 209.024 277.159C209.372 277.297 209.762 277.366 210.194 277.366C210.596 277.366 210.941 277.321 211.229 277.231C211.523 277.135 211.775 277.033 211.985 276.925C212.195 276.817 212.369 276.718 212.507 276.628C212.651 276.532 212.774 276.484 212.876 276.484C213.008 276.484 213.11 276.535 213.182 276.637L213.632 277.222ZM221.684 271.552C221.384 271.15 221.06 270.871 220.712 270.715C220.364 270.553 219.974 270.472 219.542 270.472C218.696 270.472 218.045 270.775 217.589 271.381C217.133 271.987 216.905 272.851 216.905 273.973C216.905 274.567 216.956 275.077 217.058 275.503C217.16 275.923 217.31 276.271 217.508 276.547C217.706 276.817 217.949 277.015 218.237 277.141C218.525 277.267 218.852 277.33 219.218 277.33C219.746 277.33 220.205 277.21 220.595 276.97C220.991 276.73 221.354 276.391 221.684 275.953V271.552ZM223.286 265.243V278.5H222.332C222.104 278.5 221.96 278.389 221.9 278.167L221.756 277.06C221.366 277.528 220.922 277.906 220.424 278.194C219.926 278.482 219.35 278.626 218.696 278.626C218.174 278.626 217.7 278.527 217.274 278.329C216.848 278.125 216.485 277.828 216.185 277.438C215.885 277.048 215.654 276.562 215.492 275.98C215.33 275.398 215.249 274.729 215.249 273.973C215.249 273.301 215.339 272.677 215.519 272.101C215.699 271.519 215.957 271.015 216.293 270.589C216.629 270.163 217.04 269.83 217.526 269.59C218.018 269.344 218.57 269.221 219.182 269.221C219.74 269.221 220.217 269.317 220.613 269.509C221.015 269.695 221.372 269.956 221.684 270.292V265.243H223.286Z" fill="#0E0E0E"/>
<path d="M108.797 132.232L196.06 174.047C196.06 174.047 195.113 174.151 194.167 175.5C193.221 176.849 193.292 177.738 193.292 177.738L108.199 133.531L108.797 132.232Z" fill="#7C4DFF"/>
<defs>
<clipPath id="clip0_5605_48752">
<rect width="206" height="106" fill="white" transform="translate(97.6666 74)"/>
</clipPath>
<clipPath id="clip1_5605_48752">
<rect width="206" height="106" fill="white" transform="matrix(-1 0 0 -1 303.667 286)"/>
</clipPath>
</defs>
</svg>
